<?xml version="1.0" standalone="no"?>
<!DOCTYPE svg PUBLIC "-//W3C//DTD SVG 20010904//EN"
 "http://www.w3.org/TR/2001/REC-SVG-20010904/DTD/svg10.dtd">
<svg version="1.0" xmlns="http://www.w3.org/2000/svg"
 width="442.000000pt" height="442.000000pt" viewBox="0 0 442.000000 442.000000"
 preserveAspectRatio="xMidYMid meet">
<metadata>
Created by potrace 1.14, written by Peter Selinger 2001-2017
</metadata>
<g transform="translate(0.000000,442.000000) scale(0.100000,-0.100000)"
fill="#000000" stroke="none">
<path d="M460 4409 c-190 -49 -319 -148 -396 -303 -67 -136 -63 -29 -64 -1901
0 -1677 0 -1701 20 -1773 58 -210 202 -354 410 -411 74 -21 88 -21 1775 -21
1887 0 1759 -4 1905 68 52 25 96 57 143 104 37 37 67 73 67 79 0 7 14 34 31
62 17 27 39 84 50 125 18 73 19 130 19 1768 0 1156 -3 1710 -11 1746 -15 74
-26 101 -82 196 -80 134 -186 212 -343 252 -75 20 -115 20 -1783 19 -983 0
-1721 -5 -1741 -10z m1116 -1009 c206 -55 354 -180 444 -373 104 -220 69 -502
-83 -689 -26 -31 -47 -59 -47 -62 0 -3 13 -18 28 -33 221 -215 285 -545 161
-820 -88 -197 -264 -350 -469 -408 -88 -26 -289 -27 -378 -2 -199 54 -373 193
-460 369 -53 106 -72 179 -79 300 -11 200 53 380 188 523 l66 70 -49 60 c-162
198 -195 482 -81 709 39 77 86 142 142 195 43 40 158 116 198 132 132 51 295
62 419 29z m1586 1 c100 -26 159 -54 246 -119 294 -219 349 -660 118 -944 -25
-31 -46 -61 -46 -66 0 -5 13 -20 28 -33 79 -67 151 -184 193 -310 30 -90 37
-270 15 -368 -115 -504 -696 -732 -1126 -442 -239 162 -359 477 -290 763 34
140 110 274 207 364 13 12 23 24 23 28 0 4 -21 33 -47 64 -121 149 -173 378
-128 570 18 74 74 190 123 252 162 208 436 304 684 241z"/>
<path d="M1324 3050 c-86 -27 -180 -123 -204 -208 -15 -54 -12 -142 6 -195 20
-60 88 -135 150 -167 42 -21 63 -25 139 -25 104 0 151 19 223 88 82 80 107
227 58 334 -29 61 -89 124 -148 154 -48 25 -171 35 -224 19z"/>
<path d="M1305 2071 c-79 -20 -184 -114 -223 -199 -31 -69 -41 -180 -21 -249
82 -295 462 -369 648 -126 54 70 73 135 69 233 -4 105 -35 179 -104 245 -77
76 -132 98 -244 101 -52 2 -108 0 -125 -5z"/>
<path d="M2893 3039 c-62 -24 -132 -89 -164 -150 -31 -60 -37 -169 -15 -237
24 -72 90 -142 167 -177 56 -25 70 -27 143 -23 90 6 133 25 199 87 66 62 82
102 82 211 0 104 -9 130 -70 205 -74 91 -228 129 -342 84z"/>
<path d="M2900 2071 c-95 -31 -187 -111 -228 -199 -24 -50 -27 -69 -27 -157 0
-90 3 -105 28 -155 40 -76 100 -135 177 -173 59 -29 73 -32 160 -32 86 1 100
4 155 32 76 40 134 97 171 170 26 53 29 67 29 158 0 87 -3 107 -26 155 -33 70
-101 141 -170 176 -46 24 -68 28 -149 31 -52 1 -106 -1 -120 -6z"/>
</g>
</svg>
